. 
 
http://www.torrenting.com          :     Once & For all ;)


               www . Torrenting . Com 

(((((((((((((= Enjoy No RAR releases =))))))))))))))))))))


...................................NFO:....................................

.                                                                                                     
       
     
     
       
       
     
     
                                         
                                         
                EXVID                    
                                         
         
                                         
         Filled the Archives             
                                         
         
                                         
                With:                    
                                         
         
                                         
                                    
     E240                           
                                    
     SP               (C) 2009      
                                         
     
     
     
                                                                                  
                                                                                   
               Nothing.In.Common.1986.iNTERNAL.DVDRip.XviD-EXViDiNT                 
                                                                                   
                                                                                  
     
                                                                                               
EXViD aims to iNTERNAL those releases which have been lost in the archives.
EXViD aims to PRE non-internal releases which have poor sources and are likely skipped by others. 
http://www.imdb.com/title/tt0091653/
Subtitles: EN, FR, ES, PT, ZH, KO, TH
Date: 2012.01

Director: Garry Marshall

Genres: Comedy | Drama | Romance

Plot:
David Basner is a successful advertising executive who has it all: Money, happiness, and women
who want him. Then one day his world falls apart when his mother leaves his father. Now, he must
balance his life between his mother, who is happy with her newfound independence, and his father,
a recently laid off salesman who is hard-headed, stubborn, and hides a lot from David. Now David
must cope with the downfall of his family and his life.

Cast:
Tom Hanks	...	David Basner
Jackie Gleason	...	Max Basner
Eva Marie Saint	...	Lorraine Basner
Hector Elizondo	...	Charlie Gargas
Barry Corbin	...	Andrew Woolridge
Bess Armstrong	...	Donna Mildred Martin
Sela Ward	...	Cheryl Ann Wayne
Cindy Harrell	...	Shelley the Stewardess
John Kapelos	...	Roger the Commercial Director
Carol Messing	...	David's Secretary
Bill Applebaum	...	Ted Geller
Mona Lyden	...	Mishi
Anthony Starke	...	Cameron
Julio Alonso	...	Rick
Jane Morris	...	Dale

Stats:
Format                                   : AVI
Format/Info                              : Audio Video Interleave
Format profile                           : OpenDML
File size                                : 1.37 GiB
Duration                                 : 1h 58mn
Overall bit rate mode                    : Variable
Overall bit rate                         : 1 646 Kbps

Video
ID                                       : 0
Format                                   : MPEG-4 Visual
Format profile                           : Advanced Simple@L5
Format settings, BVOP                    : 2
Format settings, QPel                    : No
Format settings, GMC                     : No warppoints
Format settings, Matrix                  : Default (MPEG)
Codec ID                                 : XVID
Codec ID/Hint                            : XviD
Duration                                 : 1h 58mn
Bit rate                                 : 1 531 Kbps
Width                                    : 624 pixels
Height                                   : 336 pixels
Display aspect ratio                     : 1.857
Frame rate                               : 23.976 fps
Color space                              : YUV
Chroma subsampling                       : 4:2:0
Bit depth                                : 8 bits
Scan type                                : Progressive
Compression mode                         : Lossy
Bits/(Pixel*Frame)                       : 0.305
Stream size                              : 1.27 GiB (93%)
Writing library                          : XviD 64

Audio
ID                                       : 1
Format                                   : MPEG Audio
Format version                           : Version 1
Format profile                           : Layer 3
Codec ID                                 : 55
Codec ID/Hint                            : MP3
Duration                                 : 1h 58mn
Bit rate mode                            : Variable
Bit rate                                 : 101 Kbps
Channel(s)                               : 1 channel
Sampling rate                            : 48.0 KHz
Compression mode                         : Lossy
Stream size                              : 254 KiB (0%)
Alignment                                : Aligned on interleaves
Interleave, duration                     : 7527 ms (180.46 video frames)
Interleave, preload duration             : 160 ms
Writing library                          : LAME3.98.4



Release notes:
Enjoy!

Looking for:
75TB+ Archives
DUTCH/FLEMiSH Archives
                                                                                                    
Greets: CRBS EPiSODE FiCO FLS iLS KLASSiGER LiPSYNC MADE NODLABS RUNNER SPRiNTER      
   

                                                                    ASCII DONE BY XX^NFO 2oo9     
 

RLS-Crc: 415243414445:42EECD90